# xmcd
#
# Track frame offsets:
#	150
#	26787
#	45253
#	66792
#	86708
#	104830
#	122894
#	144985
#	166419
#	186277
#	207869
#	227245
#	251536
#	269386
#	297166
#	318137
#
# Disc length: 4454 seconds
#
# Revision: 1
# Processed by: cddbd v1.5.2PL0 Copyright (c) Steve Scherf et al.
# Submitted via: EasyCDDAExtractor 10.0.6.1
#
DISCID=ea116410
DTITLE=Tchê Garotos - Ao Vivo E... Bem Vivo!
DYEAR=2005
DGENRE=Gaúcha
TTITLE0=Vaneira Turbo (Ao Vivo)
TTITLE1=O Pau de Macarrão (Ao Vivo)
TTITLE2=Saudade de Jackson do Pandeiro (Ao Vivo)
TTITLE3=Agora ''Agüenta Nóis'' (Ao Vivo)
TTITLE4=Pimentinha (Ao Vivo)
TTITLE5=Tchê Garotos na Veia (Ao Vivo)
TTITLE6=Medley [Pecado e Paixão # Magia] (Ao Vivo)
TTITLE7=Hoje Eu Quero é Ser Feliz (Ao Vivo)
TTITLE8=Menininha (Ao Vivo)
TTITLE9=Medley [Eu Tô na Paz # Iemanjá # Quero Ver Meu Amor] (Ao Vivo)
TTITLE10=Coração (Ao Vivo)
TTITLE11=Evidências (Ao Vivo)
TTITLE12=Criado Tipo Bicho (Ao Vivo)
TTITLE13=Medley [Amor de Infância # História Perfeita] (Ao Vivo)
TTITLE14=Medley [Te Tatuei no Coração # Olha Pra Mim # Amei Demais Você] (Ao V
TTITLE14=ivo)
TTITLE15=Ajoelha e Chora (Ao Vivo)
EXTD=
EXTT0=
EXTT1=
EXTT2=
EXTT3=
EXTT4=
EXTT5=
EXTT6=
EXTT7=
EXTT8=
EXTT9=
EXTT10=
EXTT11=
EXTT12=
EXTT13=
EXTT14=
EXTT15=
PLAYORDER=
